REM MD5 ee1561e2ce3a7ac9bf16cc598103fbac
FILE "D (USA) (Disc 1).bin" BINARY
  TRACK 01 MODE2/2352
    INDEX 01 00:00:00
  TRACK 02 AUDIO
    INDEX 00 63:18:24
    INDEX 01 63:20:24
  TRACK 03 AUDIO
    INDEX 00 66:30:24
    INDEX 01 66:32:24
REM LEADOUT 69:32:49
